<?xml version="1.0" standalone="no"?>
<!DOCTYPE svg PUBLIC "-//W3C//DTD SVG 20010904//EN"
 "http://www.w3.org/TR/2001/REC-SVG-20010904/DTD/svg10.dtd">
<svg version="1.0" xmlns="http://www.w3.org/2000/svg"
 width="700.000000pt" height="700.000000pt" viewBox="0 0 700.000000 700.000000"
 preserveAspectRatio="xMidYMid meet">
<metadata>
Created by potrace 1.11, written by Peter Selinger 2001-2013
</metadata>
<g transform="translate(0.000000,700.000000) scale(0.100000,-0.100000)"
fill="#000000" stroke="none">
<path d="M3310 6760 c-968 -56 -1857 -538 -2441 -1326 -334 -449 -547 -995
-614 -1569 -22 -187 -22 -543 0 -730 107 -920 577 -1726 1327 -2278 301 -222
694 -410 1068 -511 467 -126 1007 -144 1480 -50 805 160 1509 606 2001 1270
334 449 547 995 614 1569 22 187 22 543 0 730 -107 920 -577 1726 -1327 2278
-301 222 -694 410 -1068 511 -321 86 -702 125 -1040 106z m386 -1295 c374 -66
683 -298 849 -639 279 -571 51 -1256 -513 -1544 -340 -174 -724 -174 -1064 0
-303 155 -528 441 -602 768 -108 474 86 967 486 1233 141 94 285 152 450 182
101 18 288 18 394 0z m134 -2690 c225 -35 433 -100 645 -204 238 -117 395
-230 591 -425 192 -192 331 -388 441 -623 37 -80 42 -97 31 -111 -24 -29 -221
-194 -312 -261 -737 -544 -1684 -706 -2576 -441 -298 89 -616 249 -876 441
-91 67 -288 232 -312 261 -11 14 -6 31 31 111 110 235 249 431 441 623 196
195 353 308 591 425 257 125 489 190 800 223 82 8 404 -4 505 -19z"/>
</g>
</svg>
